{
  "accessors": [
    {
      "bufferView": 2,
      "componentType": 5126,
      "count": 24,
      "max": [
        0.6296402215957642,
        0.7998988628387451,
        0.8375600576400757
      ],
      "min": [
        -1.1046862602233887,
        -1.1626726388931274,
        -0.16243991255760193
      ],
      "type": "VEC3"
    },
    {
      "bufferView": 2,
      "byteOffset": 288,
      "componentType": 5126,
      "count": 24,
      "max": [
        0.8530817627906799,
        0.8530815839767456,
        1.0
      ],
      "min": [
        -0.8530817627906799,
        -0.8530817031860352,
        -1.0
      ],
      "type": "VEC3"
    },
    {
      "bufferView": 1,
      "componentType": 5126,
      "count": 24,
      "max": [
        0.8881371021270752,
        1.0
      ],
      "min": [
        0.0,
        0.0
      ],
      "type": "VEC2"
    },
    {
      "bufferView": 0,
      "componentType": 5125,
      "count": 36,
      "type": "SCALAR"
    },
    {
      "bufferView": 2,
      "byteOffset": 576,
      "componentType": 5126,
      "count": 24,
      "max": [
        0.5486899614334106,
        0.3066336214542389,
        0.9528432488441467
      ],
      "min": [
        -1.3773057460784912,
        -1.9327702522277832,
        -0.08043962717056274
      ],
      "type": "VEC3"
    },
    {
      "bufferView": 2,
      "byteOffset": 864,
      "componentType": 5126,
      "count": 24,
      "max": [
        0.8592817783355713,
        0.8466793894767761,
        1.0
      ],
      "min": [
        -0.8592817783355713,
        -0.8466793894767761,
        -1.0
      ],
      "type": "VEC3"
    },
    {
      "bufferView": 1,
      "byteOffset": 192,
      "componentType": 5126,
      "count": 24,
      "max": [
        0.8546828031539917,
        0.9999998807907104
      ],
      "min": [
        0.0,
        0.0
      ],
      "type": "VEC2"
    },
    {
      "bufferView": 0,
      "byteOffset": 144,
      "componentType": 5125,
      "count": 36,
      "type": "SCALAR"
    },
    {
      "bufferView": 2,
      "byteOffset": 1152,
      "componentType": 5126,
      "count": 24,
      "max": [
        0.4884363114833832,
        0.2976835370063782,
        0.07321226596832275
      ],
      "min": [
        -1.4359855651855469,
        -1.784522294998169,
        -0.9763438701629639
      ],
      "type": "VEC3"
    },
    {
      "bufferView": 2,
      "byteOffset": 1440,
      "componentType": 5126,
      "count": 24,
      "max": [
        0.842392086982727,
        0.863219141960144,
        1.0
      ],
      "min": [
        -0.8423919677734375,
        -0.8632193207740784,
        -1.0
      ],
      "type": "VEC3"
    },
    {
      "bufferView": 1,
      "byteOffset": 384,
      "componentType": 5126,
      "count": 24,
      "max": [
        0.8574427366256714,
        0.9993784427642822
      ],
      "min": [
        -0.0008228164515458047,
        -0.00017685722559690475
      ],
      "type": "VEC2"
    },
    {
      "bufferView": 0,
      "byteOffset": 288,
      "componentType": 5125,
      "count": 36,
      "type": "SCALAR"
    },
    {
      "bufferView": 2,
      "byteOffset": 1728,
      "componentType": 5126,
      "count": 48,
      "max": [
        1.1817903518676758,
        0.9082430005073547,
        0.36982905864715576
      ],
      "min": [
        -0.27414482831954956,
        -0.40505945682525635,
        -0.36776262521743774
      ],
      "type": "VEC3"
    },
    {
      "bufferView": 2,
      "byteOffset": 2304,
      "componentType": 5126,
      "count": 48,
      "max": [
        1.0,
        1.0,
        1.0
      ],
      "min": [
        -1.0,
        -1.0,
        -1.0
      ],
      "type": "VEC3"
    },
    {
      "bufferView": 1,
      "byteOffset": 576,
      "componentType": 5126,
      "count": 48,
      "max": [
        0.9758920669555664,
        1.0
      ],
      "min": [
        0.0,
        0.0
      ],
      "type": "VEC2"
    },
    {
      "bufferView": 0,
      "byteOffset": 432,
      "componentType": 5125,
      "count": 72,
      "type": "SCALAR"
    },
    {
      "bufferView": 2,
      "byteOffset": 2880,
      "componentType": 5126,
      "count": 40,
      "max": [
        0.3187113404273987,
        0.004449669271707535,
        1.2415039539337158
      ],
      "min": [
        -1.0102119445800781,
        -0.017774172127246857,
        -0.17434515058994293
      ],
      "type": "VEC3"
    },
    {
      "bufferView": 2,
      "byteOffset": 3360,
      "componentType": 5126,
      "count": 40,
      "max": [
        0.0015009617200121284,
        0.9998729228973389,
        0.015876298770308495
      ],
      "min": [
        0.0015009513590484858,
        0.9998728632926941,
        0.015876276418566704
      ],
      "type": "VEC3"
    },
    {
      "bufferView": 1,
      "byteOffset": 960,
      "componentType": 5126,
      "count": 40,
      "max": [
        0.9999999403953552,
        0.9215207099914551
      ],
      "min": [
        0.0,
        0.0
      ],
      "type": "VEC2"
    },
    {
      "bufferView": 0,
      "byteOffset": 720,
      "componentType": 5125,
      "count": 60,
      "type": "SCALAR"
    },
    {
      "bufferView": 2,
      "byteOffset": 3840,
      "componentType": 5126,
      "count": 48,
      "max": [
        0.374584823846817,
        0.568651020526886,
        -0.39278310537338257
      ],
      "min": [
        -0.2494901567697525,
        -0.07978560775518417,
        -0.798133373260498
      ],
      "type": "VEC3"
    },
    {
      "bufferView": 2,
      "byteOffset": 4416,
      "componentType": 5126,
      "count": 48,
      "max": [
        1.0,
        1.0,
        1.0
      ],
      "min": [
        -1.0,
        -1.0,
        -1.0
      ],
      "type": "VEC3"
    },
    {
      "bufferView": 1,
      "byteOffset": 1280,
      "componentType": 5126,
      "count": 48,
      "max": [
        0.8432038426399231,
        1.0
      ],
      "min": [
        0.0,
        0.0
      ],
      "type": "VEC2"
    },
    {
      "bufferView": 0,
      "byteOffset": 960,
      "componentType": 5125,
      "count": 72,
      "type": "SCALAR"
    },
    {
      "bufferView": 2,
      "byteOffset": 4992,
      "componentType": 5126,
      "count": 24,
      "max": [
        0.4301382005214691,
        0.2290114462375641,
        0.9113579988479614
      ],
      "min": [
        -1.3041883707046509,
        -1.7335600852966309,
        -0.08864220976829529
      ],
      "type": "VEC3"
    },
    {
      "bufferView": 2,
      "byteOffset": 5280,
      "componentType": 5126,
      "count": 24,
      "max": [
        0.8530817627906799,
        0.8530817031860352,
        1.0
      ],
      "min": [
        -0.8530816435813904,
        -0.8530817031860352,
        -1.0
      ],
      "type": "VEC3"
    },
    {
      "bufferView": 1,
      "byteOffset": 1664,
      "componentType": 5126,
      "count": 24,
      "max": [
        0.8881370425224304,
        1.0000001192092896
      ],
      "min": [
        0.0,
        0.0
      ],
      "type": "VEC2"
    },
    {
      "bufferView": 0,
      "byteOffset": 1248,
      "componentType": 5125,
      "count": 36,
      "type": "SCALAR"
    },
    {
      "bufferView": 2,
      "byteOffset": 5568,
      "componentType": 5126,
      "count": 16,
      "max": [
        0.3452134132385254,
        0.16469214856624603,
        0.03763043135404587
      ],
      "min": [
        -0.03698618710041046,
        -0.11732743680477142,
        -1.1463123559951782
      ],
      "type": "VEC3"
    },
    {
      "bufferView": 2,
      "byteOffset": 5760,
      "componentType": 5126,
      "count": 16,
      "max": [
        0.9994552731513977,
        0.02591647580265999,
        -0.03299756720662117
      ],
      "min": [
        -0.03492522984743118,
        0.0006139407632872462,
        -0.9990538954734802
      ],
      "type": "VEC3"
    },
    {
      "bufferView": 1,
      "byteOffset": 1856,
      "componentType": 5126,
      "count": 16,
      "max": [
        0.9858028888702393,
        1.0
      ],
      "min": [
        0.0,
        0.0
      ],
      "type": "VEC2"
    },
    {
      "bufferView": 0,
      "byteOffset": 1392,
      "componentType": 5125,
      "count": 24,
      "type": "SCALAR"
    },
    {
      "bufferView": 2,
      "byteOffset": 5952,
      "componentType": 5126,
      "count": 16,
      "max": [
        0.3609018325805664,
        0.15451288223266602,
        0.014834902249276638
      ],
      "min": [
        -0.021297812461853027,
        -0.12750664353370667,
        -1.1691081523895264
      ],
      "type": "VEC3"
    },
    {
      "bufferView": 2,
      "byteOffset": 6144,
      "componentType": 5126,
      "count": 16,
      "max": [
        0.9994553327560425,
        0.025916224345564842,
        -0.03299755975604057
      ],
      "min": [
        -0.034925226122140884,
        0.0006139407632872462,
        -0.9990538954734802
      ],
      "type": "VEC3"
    },
    {
      "bufferView": 1,
      "byteOffset": 1984,
      "componentType": 5126,
      "count": 16,
      "max": [
        0.9858132600784302,
        1.0
      ],
      "min": [
        0.0,
        0.0
      ],
      "type": "VEC2"
    },
    {
      "bufferView": 0,
      "byteOffset": 1488,
      "componentType": 5125,
      "count": 24,
      "type": "SCALAR"
    }
  ],
  "asset": {
    "extras": {
      "author": "Dante_Avendaño (https://sketchfab.com/dante_0721)",
      "license": "CC-BY-4.0 (http://creativecommons.org/licenses/by/4.0/)",
      "source": "https://sketchfab.com/3d-models/ninfa-minecraft-0627ad2bf1584b599dea446bb8190b9a",
      "title": "Ninfa Minecraft"
    },
    "generator": "Sketchfab-14.32.1",
    "version": "2.0"
  },
  "bufferViews": [
    {
      "buffer": 0,
      "byteLength": 1584,
      "name": "floatBufferViews",
      "target": 34963
    },
    {
      "buffer": 0,
      "byteLength": 2112,
      "byteOffset": 1584,
      "byteStride": 8,
      "name": "floatBufferViews",
      "target": 34962
    },
    {
      "buffer": 0,
      "byteLength": 6336,
      "byteOffset": 3696,
      "byteStride": 12,
      "name": "floatBufferViews",
      "target": 34962
    }
  ],
  "buffers": [
    {
      "byteLength": 10032,
      "uri": "scene.bin"
    }
  ],
  "images": [
    {
      "uri": "textures/cuerpo_baseColor.png"
    },
    {
      "uri": "textures/cabeza_baseColor.png"
    },
    {
      "uri": "textures/cresta_baseColor.png"
    },
    {
      "uri": "textures/pico_baseColor.png"
    },
    {
      "uri": "textures/patita_der_baseColor.png"
    },
    {
      "uri": "textures/papita_izq_baseColor.png"
    }
  ],
  "materials": [
    {
      "doubleSided": true,
      "name": "cuerpo",
      "pbrMetallicRoughness": {
        "baseColorTexture": {
          "index": 0
        },
        "metallicFactor": 0.0,
        "roughnessFactor": 0.5
      }
    },
    {
      "doubleSided": true,
      "name": "ala_der",
      "pbrMetallicRoughness": {
        "baseColorTexture": {
          "index": 0
        },
        "metallicFactor": 0.0,
        "roughnessFactor": 0.5
      }
    },
    {
      "doubleSided": true,
      "name": "ala_izq",
      "pbrMetallicRoughness": {
        "baseColorTexture": {
          "index": 0
        },
        "metallicFactor": 0.0,
        "roughnessFactor": 0.5
      }
    },
    {
      "doubleSided": true,
      "name": "cabeza",
      "pbrMetallicRoughness": {
        "baseColorTexture": {
          "index": 1
        },
        "metallicFactor": 0.0,
        "roughnessFactor": 0.5
      }
    },
    {
      "doubleSided": true,
      "name": "cresta",
      "pbrMetallicRoughness": {
        "baseColorTexture": {
          "index": 2
        },
        "metallicFactor": 0.0,
        "roughnessFactor": 0.5
      }
    },
    {
      "doubleSided": true,
      "name": "pico",
      "pbrMetallicRoughness": {
        "baseColorTexture": {
          "index": 3
        },
        "metallicFactor": 0.0,
        "roughnessFactor": 0.5
      }
    },
    {
      "doubleSided": true,
      "name": "colita",
      "pbrMetallicRoughness": {
        "baseColorTexture": {
          "index": 0
        },
        "metallicFactor": 0.0,
        "roughnessFactor": 0.5
      }
    },
    {
      "doubleSided": true,
      "name": "patita_der",
      "pbrMetallicRoughness": {
        "baseColorTexture": {
          "index": 4
        },
        "metallicFactor": 0.0,
        "roughnessFactor": 0.5
      }
    },
    {
      "doubleSided": true,
      "name": "papita_izq",
      "pbrMetallicRoughness": {
        "baseColorTexture": {
          "index": 5
        },
        "metallicFactor": 0.0,
        "roughnessFactor": 0.5
      }
    }
  ],
  "meshes": [
    {
      "name": "Object_0",
      "primitives": [
        {
          "attributes": {
            "NORMAL": 1,
            "POSITION": 0,
            "TEXCOORD_0": 2
          },
          "indices": 3,
          "material": 0,
          "mode": 4
        }
      ]
    },
    {
      "name": "Object_1",
      "primitives": [
        {
          "attributes": {
            "NORMAL": 5,
            "POSITION": 4,
            "TEXCOORD_0": 6
          },
          "indices": 7,
          "material": 1,
          "mode": 4
        }
      ]
    },
    {
      "name": "Object_2",
      "primitives": [
        {
          "attributes": {
            "NORMAL": 9,
            "POSITION": 8,
            "TEXCOORD_0": 10
          },
          "indices": 11,
          "material": 2,
          "mode": 4
        }
      ]
    },
    {
      "name": "Object_3",
      "primitives": [
        {
          "attributes": {
            "NORMAL": 13,
            "POSITION": 12,
            "TEXCOORD_0": 14
          },
          "indices": 15,
          "material": 3,
          "mode": 4
        }
      ]
    },
    {
      "name": "Object_4",
      "primitives": [
        {
          "attributes": {
            "NORMAL": 17,
            "POSITION": 16,
            "TEXCOORD_0": 18
          },
          "indices": 19,
          "material": 4,
          "mode": 4
        }
      ]
    },
    {
      "name": "Object_5",
      "primitives": [
        {
          "attributes": {
            "NORMAL": 21,
            "POSITION": 20,
            "TEXCOORD_0": 22
          },
          "indices": 23,
          "material": 5,
          "mode": 4
        }
      ]
    },
    {
      "name": "Object_6",
      "primitives": [
        {
          "attributes": {
            "NORMAL": 25,
            "POSITION": 24,
            "TEXCOORD_0": 26
          },
          "indices": 27,
          "material": 6,
          "mode": 4
        }
      ]
    },
    {
      "name": "Object_7",
      "primitives": [
        {
          "attributes": {
            "NORMAL": 29,
            "POSITION": 28,
            "TEXCOORD_0": 30
          },
          "indices": 31,
          "material": 7,
          "mode": 4
        }
      ]
    },
    {
      "name": "Object_8",
      "primitives": [
        {
          "attributes": {
            "NORMAL": 33,
            "POSITION": 32,
            "TEXCOORD_0": 34
          },
          "indices": 35,
          "material": 8,
          "mode": 4
        }
      ]
    }
  ],
  "nodes": [
    {
      "children": [
        1
      ],
      "matrix": [
        1.0,
        0.0,
        0.0,
        0.0,
        0.0,
        2.220446049250313e-16,
        -1.0,
        0.0,
        0.0,
        1.0,
        2.220446049250313e-16,
        0.0,
        0.0,
        0.0,
        0.0,
        1.0
      ],
      "name": "Sketchfab_model"
    },
    {
      "children": [
        2
      ],
      "name": "root"
    },
    {
      "children": [
        3
      ],
      "matrix": [
        1.0,
        0.0,
        0.0,
        0.0,
        0.0,
        2.220446049250313e-16,
        1.0,
        0.0,
        0.0,
        -1.0,
        2.220446049250313e-16,
        0.0,
        0.0,
        0.0,
        0.0,
        1.0
      ],
      "name": "GLTF_SceneRootNode"
    },
    {
      "children": [
        4,
        5,
        7,
        9,
        15,
        17,
        19
      ],
      "matrix": [
        1.0675700902938843,
        0.0,
        0.0,
        0.0,
        0.0,
        1.0,
        0.0,
        0.0,
        0.0,
        0.0,
        1.0,
        0.0,
        0.3035053610801697,
        1.983093500137329,
        -0.4146748483181,
        1.0
      ],
      "name": "torso_9"
    },
    {
      "mesh": 0,
      "name": "Object_4"
    },
    {
      "children": [
        6
      ],
      "matrix": [
        0.7943132519721985,
        0.0,
        0.0,
        0.0,
        0.0,
        0.7495437264442444,
        0.0,
        0.0,
        0.0,
        0.0,
        0.27115756273269653,
        0.0,
        0.0961313247680664,
        0.4610116481781006,
        0.8665024638175964,
        1.0
      ],
      "name": "alaDer_1"
    },
    {
      "mesh": 1,
      "name": "Object_6"
    },
    {
      "children": [
        8
      ],
      "matrix": [
        0.7642009258270264,
        0.0,
        0.0,
        0.0,
        0.0,
        0.7495437264442444,
        0.0,
        0.0,
        0.0,
        0.0,
        0.27115756273269653,
        0.0,
        0.09519046545028687,
        0.4179508686065674,
        -0.1892869472503662,
        1.0
      ],
      "name": "alaIzq_2"
    },
    {
      "mesh": 2,
      "name": "Object_8"
    },
    {
      "children": [
        10,
        11,
        13
      ],
      "matrix": [
        1.0,
        0.0,
        0.0,
        0.0,
        0.0,
        1.0,
        0.0,
        0.0,
        0.0,
        0.0,
        1.0,
        0.0,
        0.05397062748670578,
        0.7559926509857178,
        0.3489565849304199,
        1.0
      ],
      "name": "Cabeza_5"
    },
    {
      "mesh": 3,
      "name": "Object_10"
    },
    {
      "children": [
        12
      ],
      "matrix": [
        0.8416244983673096,
        0.0,
        0.0,
        0.0,
        0.0,
        -0.023906130007311444,
        -0.9996664506657047,
        0.0,
        0.0,
        0.9124375805444834,
        -0.02182012951372667,
        0.0,
        0.4628945589065552,
        0.8833723068237305,
        0.008161734789609909,
        1.0
      ],
      "name": "cresta_3"
    },
    {
      "mesh": 4,
      "name": "Object_12"
    },
    {
      "children": [
        14
      ],
      "matrix": [
        1.0,
        0.0,
        0.0,
        0.0,
        0.0,
        1.0,
        0.0,
        0.0,
        0.0,
        0.0,
        1.0,
        0.0,
        0.8037756085395813,
        0.1237192153930664,
        0.5866140127182007,
        1.0
      ],
      "name": "pico_4"
    },
    {
      "mesh": 5,
      "name": "Object_14"
    },
    {
      "children": [
        16
      ],
      "matrix": [
        0.3890002135544226,
        0.09053326472978548,
        -0.6515256072226666,
        0.0,
        0.6217468242338424,
        0.14762042513488785,
        0.3917331929898852,
        0.0,
        0.06231838452754096,
        -0.26389875668874496,
        0.0005375826898189169,
        0.0,
        -0.8582211136817932,
        -0.44774097204208374,
        0.34876319766044617,
        1.0
      ],
      "name": "colita_6"
    },
    {
      "mesh": 6,
      "name": "Object_16"
    },
    {
      "children": [
        18
      ],
      "matrix": [
        0.8416244983673096,
        0.0,
        0.0,
        0.0,
        -0.0,
        -0.023906130007311444,
        -0.9996664506657047,
        0.0,
        0.0,
        0.9124375805444834,
        -0.02182012951372667,
        0.0,
        -0.522754430770874,
        -0.9959294199943542,
        0.5790464878082275,
        1.0
      ],
      "name": "pataDer_7"
    },
    {
      "mesh": 7,
      "name": "Object_18"
    },
    {
      "children": [
        20
      ],
      "matrix": [
        0.8416244983673096,
        0.0,
        0.0,
        0.0,
        -0.0,
        -0.023906130007311444,
        -0.9996664506657047,
        0.0,
        0.0,
        0.9124375805444834,
        -0.02182012951372667,
        0.0,
        -0.5420238971710205,
        -0.9754087924957275,
        0.10130763053894043,
        1.0
      ],
      "name": "pataIzq_8"
    },
    {
      "mesh": 8,
      "name": "Object_20"
    }
  ],
  "samplers": [
    {
      "magFilter": 9729,
      "minFilter": 9987,
      "wrapS": 10497,
      "wrapT": 10497
    }
  ],
  "scene": 0,
  "scenes": [
    {
      "name": "Sketchfab_Scene",
      "nodes": [
        0
      ]
    }
  ],
  "textures": [
    {
      "sampler": 0,
      "source": 0
    },
    {
      "sampler": 0,
      "source": 1
    },
    {
      "sampler": 0,
      "source": 2
    },
    {
      "sampler": 0,
      "source": 3
    },
    {
      "sampler": 0,
      "source": 4
    },
    {
      "sampler": 0,
      "source": 5
    }
  ]
}
