{
  "accessors": [
    {
      "bufferView": 2,
      "componentType": 5126,
      "count": 43492,
      "max": [
        0.19512200355529785,
        -0.09756100177764893,
        1.0
      ],
      "min": [
        -0.4390240013599396,
        -0.6829270124435425,
        0.07317069917917252
      ],
      "type": "VEC3"
    },
    {
      "bufferView": 2,
      "byteOffset": 521904,
      "componentType": 5126,
      "count": 43492,
      "max": [
        1.0,
        1.0,
        1.0
      ],
      "min": [
        -1.0,
        -1.0,
        -1.0
      ],
      "type": "VEC3"
    },
    {
      "bufferView": 1,
      "componentType": 5126,
      "count": 43492,
      "max": [
        0.7363280057907104,
        0.8574219942092896
      ],
      "min": [
        0.7050780057907104,
        0.8261719942092896
      ],
      "type": "VEC2"
    },
    {
      "bufferView": 0,
      "componentType": 5125,
      "count": 65238,
      "type": "SCALAR"
    },
    {
      "bufferView": 2,
      "byteOffset": 1043808,
      "componentType": 5126,
      "count": 5030,
      "max": [
        0.19512200355529785,
        -0.09756100177764893,
        0.8780490159988403
      ],
      "min": [
        -0.4390240013599396,
        -0.6829270124435425,
        0.0
      ],
      "type": "VEC3"
    },
    {
      "bufferView": 2,
      "byteOffset": 1104168,
      "componentType": 5126,
      "count": 5030,
      "max": [
        1.0,
        1.0,
        1.0
      ],
      "min": [
        -1.0,
        -1.0,
        -1.0
      ],
      "type": "VEC3"
    },
    {
      "bufferView": 1,
      "byteOffset": 347936,
      "componentType": 5126,
      "count": 5030,
      "max": [
        0.7363280057907104,
        0.8574219942092896
      ],
      "min": [
        0.14257800579071045,
        0.7558590173721313
      ],
      "type": "VEC2"
    },
    {
      "bufferView": 0,
      "byteOffset": 260952,
      "componentType": 5125,
      "count": 7572,
      "type": "SCALAR"
    },
    {
      "bufferView": 2,
      "byteOffset": 1164528,
      "componentType": 5126,
      "count": 6136,
      "max": [
        0.19512200355529785,
        -0.09756100177764893,
        0.731706976890564
      ],
      "min": [
        -0.4390240013599396,
        -0.6829270124435425,
        0.13414600491523743
      ],
      "type": "VEC3"
    },
    {
      "bufferView": 2,
      "byteOffset": 1238160,
      "componentType": 5126,
      "count": 6136,
      "max": [
        1.0,
        1.0,
        1.0
      ],
      "min": [
        -1.0,
        -1.0,
        -1.0
      ],
      "type": "VEC3"
    },
    {
      "bufferView": 1,
      "byteOffset": 388176,
      "componentType": 5126,
      "count": 6136,
      "max": [
        0.6308590173721313,
        0.5761719942092896
      ],
      "min": [
        0.5996090173721313,
        0.5449219942092896
      ],
      "type": "VEC2"
    },
    {
      "bufferView": 0,
      "byteOffset": 291240,
      "componentType": 5125,
      "count": 9204,
      "type": "SCALAR"
    }
  ],
  "asset": {
    "extras": {
      "author": "madexc (https://sketchfab.com/madexc)",
      "license": "CC-BY-4.0 (http://creativecommons.org/licenses/by/4.0/)",
      "source": "https://sketchfab.com/3d-models/spruce-tree-5d025bda189a44999a1c146d773c98e5",
      "title": "spruce-tree"
    },
    "generator": "Sketchfab-12.73.0",
    "version": "2.0"
  },
  "bufferViews": [
    {
      "buffer": 0,
      "byteLength": 328056,
      "name": "floatBufferViews",
      "target": 34963
    },
    {
      "buffer": 0,
      "byteLength": 437264,
      "byteOffset": 328056,
      "byteStride": 8,
      "name": "floatBufferViews",
      "target": 34962
    },
    {
      "buffer": 0,
      "byteLength": 1311792,
      "byteOffset": 765320,
      "byteStride": 12,
      "name": "floatBufferViews",
      "target": 34962
    }
  ],
  "buffers": [
    {
      "byteLength": 2077112,
      "uri": "scene.bin"
    }
  ],
  "images": [
    {
      "uri": "textures/Oak_Leaves_baseColor.png"
    },
    {
      "uri": "textures/Oak_Leaves_emissive.png"
    }
  ],
  "materials": [
    {
      "alphaCutoff": 0.2,
      "alphaMode": "MASK",
      "emissiveFactor": [
        0.1,
        0.1,
        0.1
      ],
      "emissiveTexture": {
        "index": 1
      },
      "name": "Oak_Leaves",
      "pbrMetallicRoughness": {
        "baseColorTexture": {
          "index": 0
        },
        "metallicFactor": 0.0
      }
    },
    {
      "doubleSided": true,
      "emissiveFactor": [
        0.1,
        0.1,
        0.1
      ],
      "emissiveTexture": {
        "index": 1
      },
      "name": "Oak_Log",
      "pbrMetallicRoughness": {
        "baseColorTexture": {
          "index": 1
        },
        "metallicFactor": 0.0
      }
    },
    {
      "doubleSided": true,
      "emissiveFactor": [
        0.1,
        0.1,
        0.1
      ],
      "emissiveTexture": {
        "index": 1
      },
      "name": "Oak_Slab",
      "pbrMetallicRoughness": {
        "baseColorTexture": {
          "index": 1
        },
        "metallicFactor": 0.0
      }
    }
  ],
  "meshes": [
    {
      "name": "Object_0",
      "primitives": [
        {
          "attributes": {
            "NORMAL": 1,
            "POSITION": 0,
            "TEXCOORD_0": 2
          },
          "indices": 3,
          "material": 0,
          "mode": 4
        }
      ]
    },
    {
      "name": "Object_1",
      "primitives": [
        {
          "attributes": {
            "NORMAL": 5,
            "POSITION": 4,
            "TEXCOORD_0": 6
          },
          "indices": 7,
          "material": 1,
          "mode": 4
        }
      ]
    },
    {
      "name": "Object_2",
      "primitives": [
        {
          "attributes": {
            "NORMAL": 9,
            "POSITION": 8,
            "TEXCOORD_0": 10
          },
          "indices": 11,
          "material": 2,
          "mode": 4
        }
      ]
    }
  ],
  "nodes": [
    {
      "children": [
        1
      ],
      "matrix": [
        1.0,
        0.0,
        0.0,
        0.0,
        0.0,
        2.220446049250313e-16,
        -1.0,
        0.0,
        0.0,
        1.0,
        2.220446049250313e-16,
        0.0,
        0.0,
        0.0,
        0.0,
        1.0
      ],
      "name": "Sketchfab_model"
    },
    {
      "children": [
        2,
        3,
        4
      ],
      "name": "Mineways2Skfb.obj.minecraft.cleaner.materialmerger.gles"
    },
    {
      "mesh": 0,
      "name": "Object_2"
    },
    {
      "mesh": 1,
      "name": "Object_3"
    },
    {
      "mesh": 2,
      "name": "Object_4"
    }
  ],
  "samplers": [
    {
      "magFilter": 9728,
      "minFilter": 9986,
      "wrapS": 10497,
      "wrapT": 10497
    }
  ],
  "scene": 0,
  "scenes": [
    {
      "name": "Sketchfab_Scene",
      "nodes": [
        0
      ]
    }
  ],
  "textures": [
    {
      "sampler": 0,
      "source": 0
    },
    {
      "sampler": 0,
      "source": 1
    }
  ]
}
