{
  "accessors": [
    {
      "bufferView": 3,
      "componentType": 5126,
      "count": 100,
      "max": [
        191.10418701171875,
        223.9580535888672,
        395.63134765625
      ],
      "min": [
        -191.10418701171875,
        -82.38035583496094,
        -765.4031982421875
      ],
      "type": "VEC3"
    },
    {
      "bufferView": 3,
      "byteOffset": 1200,
      "componentType": 5126,
      "count": 100,
      "max": [
        1.0,
        1.0,
        1.0
      ],
      "min": [
        -1.0,
        -1.0,
        -1.0
      ],
      "type": "VEC3"
    },
    {
      "bufferView": 2,
      "componentType": 5126,
      "count": 100,
      "max": [
        0.624954342842102,
        0.9843699932098389
      ],
      "min": [
        7.252395153045654e-05,
        0.2656344473361969
      ],
      "type": "VEC2"
    },
    {
      "bufferView": 1,
      "componentType": 5125,
      "count": 150,
      "type": "SCALAR"
    },
    {
      "bufferView": 5,
      "componentType": 5126,
      "count": 14,
      "max": [
        1.0,
        0.002805209718644619,
        0.0001351608952973038,
        0.0,
        2.074408040023015e-16,
        1.0,
        0.0018245874671265483,
        0.0,
        0.0017322037601843476,
        0.0017322037601843476,
        1.0,
        0.0,
        0.3241952359676361,
        0.3117178976535797,
        0.010053455829620361,
        1.0
      ],
      "min": [
        -1.081811633750116e-15,
        -0.0028056048322468996,
        -4.708204505732283e-05,
        0.0,
        -6.250006290287047e-09,
        -3.06205365632195e-05,
        -0.0018246686086058617,
        0.0,
        -0.0017322039930149913,
        -0.00173212680965662,
        -5.93328808307092e-09,
        0.0,
        -0.3241961896419525,
        -0.3117988705635071,
        -0.1544196903705597,
        1.0
      ],
      "type": "MAT4"
    },
    {
      "bufferView": 0,
      "componentType": 5123,
      "count": 100,
      "type": "VEC4"
    },
    {
      "bufferView": 4,
      "componentType": 5126,
      "count": 100,
      "max": [
        1.0,
        0.0,
        0.0,
        0.0
      ],
      "min": [
        1.0,
        0.0,
        0.0,
        0.0
      ],
      "type": "VEC4"
    }
  ],
  "asset": {
    "extras": {
      "author": "adrianobros2 (https://sketchfab.com/adrianobros2)",
      "license": "CC-BY-4.0 (http://creativecommons.org/licenses/by/4.0/)",
      "source": "https://sketchfab.com/3d-models/minecraft-axolotl-8bd2965b629d4acab55d7fa40feceab7",
      "title": "Minecraft Axolotl"
    },
    "generator": "Sketchfab-12.63.0",
    "version": "2.0"
  },
  "bufferViews": [
    {
      "buffer": 0,
      "byteLength": 800,
      "byteStride": 8,
      "name": "shortBufferViews",
      "target": 34962
    },
    {
      "buffer": 0,
      "byteLength": 600,
      "byteOffset": 800,
      "name": "floatBufferViews",
      "target": 34963
    },
    {
      "buffer": 0,
      "byteLength": 800,
      "byteOffset": 1400,
      "byteStride": 8,
      "name": "floatBufferViews",
      "target": 34962
    },
    {
      "buffer": 0,
      "byteLength": 2400,
      "byteOffset": 2200,
      "byteStride": 12,
      "name": "floatBufferViews",
      "target": 34962
    },
    {
      "buffer": 0,
      "byteLength": 1600,
      "byteOffset": 4600,
      "byteStride": 16,
      "name": "floatBufferViews",
      "target": 34962
    },
    {
      "buffer": 0,
      "byteLength": 896,
      "byteOffset": 6200,
      "name": "floatBufferViews"
    }
  ],
  "buffers": [
    {
      "byteLength": 7096,
      "uri": "scene.bin"
    }
  ],
  "images": [
    {
      "uri": "textures/Material_Axolotl_baseColor.png"
    }
  ],
  "materials": [
    {
      "alphaMode": "BLEND",
      "doubleSided": true,
      "name": "Material_Axolotl",
      "pbrMetallicRoughness": {
        "baseColorTexture": {
          "index": 0
        },
        "metallicFactor": 0.0
      }
    }
  ],
  "meshes": [
    {
      "name": "Axolotl_Material Axolotl_0",
      "primitives": [
        {
          "attributes": {
            "JOINTS_0": 5,
            "NORMAL": 1,
            "POSITION": 0,
            "TEXCOORD_0": 2,
            "WEIGHTS_0": 6
          },
          "indices": 3,
          "material": 0,
          "mode": 4
        }
      ]
    }
  ],
  "nodes": [
    {
      "children": [
        1
      ],
      "matrix": [
        1.0,
        0.0,
        0.0,
        0.0,
        0.0,
        2.220446049250313e-16,
        -1.0,
        0.0,
        0.0,
        1.0,
        2.220446049250313e-16,
        0.0,
        0.0,
        0.0,
        0.0,
        1.0
      ],
      "name": "Sketchfab_model"
    },
    {
      "children": [
        2
      ],
      "matrix": [
        0.009999999776482582,
        0.0,
        0.0,
        0.0,
        0.0,
        0.0,
        0.009999999776482582,
        0.0,
        0.0,
        -0.009999999776482582,
        0.0,
        0.0,
        0.0,
        0.0,
        0.0,
        1.0
      ],
      "name": "Axolotl.fbx"
    },
    {
      "children": [
        3
      ],
      "name": "RootNode"
    },
    {
      "children": [
        4
      ],
      "matrix": [
        100.0,
        0.0,
        0.0,
        0.0,
        0.0,
        -1.629206793918314e-05,
        -99.99999999999868,
        0.0,
        0.0,
        99.99999999999868,
        -1.629206793918314e-05,
        0.0,
        0.0,
        0.0,
        0.0,
        1.0
      ],
      "name": "Rig"
    },
    {
      "children": [
        5,
        7,
        6
      ],
      "name": "Object_4"
    },
    {
      "children": [
        8
      ],
      "name": "_rootJoint"
    },
    {
      "matrix": [
        0.28056048322480054,
        1.1284681143090142e-15,
        0.0,
        0.0,
        3.208051909335462e-23,
        -7.975879712334832e-09,
        0.18246686086058614,
        0.0,
        6.96725600265217e-16,
        -0.17322037601850304,
        -7.571703027787549e-09,
        0.0,
        -6.087917171250512e-14,
        1.862641185734759e-07,
        5.960464477539063e-07,
        1.0
      ],
      "name": "Object_6"
    },
    {
      "mesh": 0,
      "name": "Object_7",
      "skin": 0
    },
    {
      "children": [
        9,
        11,
        13,
        15,
        17,
        19
      ],
      "name": "Body_00",
      "rotation": [
        1.0,
        -1.3721725375414641e-14,
        -3.1391647326017846e-07,
        -4.371138828673793e-08
      ],
      "translation": [
        0.0,
        0.3117178976535797,
        0.010053455829620361
      ]
    },
    {
      "children": [
        10
      ],
      "name": "Head_01",
      "rotation": [
        7.52316384526264e-37,
        1.1920928955078125e-07,
        -6.310887241768095e-30,
        1.0
      ],
      "translation": [
        -8.271806125530277e-25,
        0.6234357953071594,
        0.0
      ]
    },
    {
      "name": "Head_end_07",
      "rotation": [
        -6.617444900424222e-24,
        -5.83067668541258e-23,
        6.310887241768095e-30,
        1.0
      ],
      "translation": [
        -8.271806125530277e-25,
        0.3639782965183258,
        0.0
      ]
    },
    {
      "children": [
        12
      ],
      "name": "Foot Back Left_02",
      "rotation": [
        -1.0986765346387983e-06,
        -6.490147370641353e-07,
        -0.7071068286895752,
        0.7071067094802856
      ],
      "scale": [
        0.9999999403953552,
        0.9999999403953552,
        1.0
      ],
      "translation": [
        0.28083670139312744,
        0.05895513296127319,
        0.15110798180103302
      ]
    },
    {
      "name": "Foot Back Left_end_08",
      "rotation": [
        -3.9230999449727182e-25,
        -2.117582368135751e-22,
        1.3234889800848443e-23,
        1.0
      ],
      "translation": [
        -5.551115123125783e-17,
        0.16402778029441833,
        -2.7755575615628914e-17
      ]
    },
    {
      "children": [
        14
      ],
      "name": "Foot Back Right_03",
      "rotation": [
        1.3502744877769146e-06,
        -9.03178772659885e-07,
        0.7071068286895752,
        0.7071067094802856
      ],
      "translation": [
        -0.2798950970172882,
        0.05895513296127319,
        0.15110833942890167
      ]
    },
    {
      "name": "Foot Back Right_end_09",
      "rotation": [
        -1.992220884481352e-25,
        -0.0,
        2.6469779601696886e-23,
        1.0
      ],
      "translation": [
        0.0,
        0.16496920585632324,
        -2.7755575615628914e-17
      ]
    },
    {
      "children": [
        16
      ],
      "name": "Foot Front Right_04",
      "rotation": [
        1.4363054106070194e-06,
        -9.85735482572636e-07,
        0.7071068286895752,
        0.7071067094802856
      ],
      "translation": [
        -0.28116706013679504,
        0.635913610458374,
        0.15110833942890167
      ]
    },
    {
      "name": "Foot Front Right_end_010",
      "rotation": [
        1.0835540958626147e-24,
        -2.117582368135751e-22,
        -2.6469779601696886e-23,
        1.0
      ],
      "translation": [
        -5.551115123125783e-17,
        0.1636972427368164,
        0.0
      ]
    },
    {
      "children": [
        18
      ],
      "name": "Foot Front Left_05",
      "rotation": [
        0.005932516884058714,
        -0.005933714099228382,
        -0.7070818543434143,
        0.7070819139480591
      ],
      "translation": [
        0.28116723895072937,
        0.635913610458374,
        0.15110798180103302
      ]
    },
    {
      "name": "Foot Front Left_end_011",
      "rotation": [
        1.1078353429716038e-18,
        3.6655165229808565e-41,
        3.3087224502121107e-23,
        1.0
      ],
      "translation": [
        5.551115123125783e-17,
        0.1637202948331833,
        -2.7755575615628914e-17
      ]
    },
    {
      "children": [
        20
      ],
      "name": "Tail_06",
      "rotation": [
        0.9999889731407166,
        -1.4806851300619428e-09,
        -3.1391309107675625e-07,
        -0.0047168126329779625
      ],
      "scale": [
        1.0,
        0.9999999403953552,
        1.0
      ]
    },
    {
      "name": "Tail_end_012",
      "rotation": [
        -0.0,
        3.895000719528746e-30,
        3.1554436208840472e-30,
        1.0
      ],
      "translation": [
        3.1554436208840472e-30,
        0.46598342061042786,
        -8.673617379884035e-19
      ]
    }
  ],
  "samplers": [
    {
      "magFilter": 9728,
      "minFilter": 9728,
      "wrapS": 10497,
      "wrapT": 10497
    }
  ],
  "scene": 0,
  "scenes": [
    {
      "name": "Sketchfab_Scene",
      "nodes": [
        0
      ]
    }
  ],
  "skins": [
    {
      "inverseBindMatrices": 4,
      "joints": [
        5,
        8,
        9,
        10,
        11,
        12,
        13,
        14,
        15,
        16,
        17,
        18,
        19,
        20
      ],
      "skeleton": 5
    }
  ],
  "textures": [
    {
      "sampler": 0,
      "source": 0
    }
  ]
}
